<?xml version="1.0" encoding="UTF-8" standalone="no"?><!-- Generator: Gravit.io --><svg xmlns="http://www.w3.org/2000/svg" xmlns:xlink="http://www.w3.org/1999/xlink" style="isolation:isolate" viewBox="111.753 165.475 81.547 31.492" width="81.547pt" height="31.492pt"><path d=" M 116.53 196.967 L 116.53 196.967 L 116.53 196.967 Q 115.588 196.967 114.737 196.727 L 114.737 196.727 L 114.737 196.727 Q 113.885 196.487 113.224 196.008 L 113.224 196.008 L 113.224 196.008 Q 112.563 195.528 112.175 194.817 L 112.175 194.817 L 112.175 194.817 Q 111.786 194.107 111.753 193.164 L 111.753 193.164 L 111.753 193.164 Q 111.753 193.016 111.852 192.908 L 111.852 192.908 L 111.852 192.908 Q 111.951 192.801 112.117 192.801 L 112.117 192.801 L 114.348 192.801 L 114.348 192.801 Q 114.58 192.801 114.704 192.916 L 114.704 192.916 L 114.704 192.916 Q 114.828 193.032 114.91 193.264 L 114.91 193.264 L 114.91 193.264 Q 115.01 193.726 115.233 194.016 L 115.233 194.016 L 115.233 194.016 Q 115.456 194.305 115.811 194.446 L 115.811 194.446 L 115.811 194.446 Q 116.167 194.586 116.613 194.586 L 116.613 194.586 L 116.613 194.586 Q 117.44 194.586 117.886 194.049 L 117.886 194.049 L 117.886 194.049 Q 118.332 193.512 118.332 192.47 L 118.332 192.47 L 118.332 187.693 L 112.976 187.693 L 112.976 187.693 Q 112.811 187.693 112.687 187.577 L 112.687 187.577 L 112.687 187.577 Q 112.563 187.461 112.563 187.279 L 112.563 187.279 L 112.563 185.643 L 112.563 185.643 Q 112.563 185.461 112.687 185.345 L 112.687 185.345 L 112.687 185.345 Q 112.811 185.23 112.976 185.23 L 112.976 185.23 L 120.977 185.23 L 120.977 185.23 Q 121.159 185.23 121.283 185.345 L 121.283 185.345 L 121.283 185.345 Q 121.407 185.461 121.407 185.643 L 121.407 185.643 L 121.407 192.553 L 121.407 192.553 Q 121.407 193.991 120.787 194.975 L 120.787 194.975 L 120.787 194.975 Q 120.167 195.958 119.068 196.462 L 119.068 196.462 L 119.068 196.462 Q 117.969 196.967 116.53 196.967 Z  M 124.994 196.801 L 122.961 196.801 L 122.961 196.801 Q 122.829 196.801 122.721 196.694 L 122.721 196.694 L 122.721 196.694 Q 122.614 196.586 122.614 196.454 L 122.614 196.454 L 122.614 196.454 Q 122.614 196.371 122.63 196.305 L 122.63 196.305 L 126.515 185.692 L 126.515 185.692 Q 126.565 185.511 126.722 185.37 L 126.722 185.37 L 126.722 185.37 Q 126.879 185.23 127.16 185.23 L 127.16 185.23 L 129.606 185.23 L 129.606 185.23 Q 129.887 185.23 130.045 185.37 L 130.045 185.37 L 130.045 185.37 Q 130.202 185.511 130.251 185.692 L 130.251 185.692 L 134.119 196.305 L 134.119 196.305 Q 134.152 196.371 134.152 196.454 L 134.152 196.454 L 134.152 196.454 Q 134.152 196.586 134.045 196.694 L 134.045 196.694 L 134.045 196.694 Q 133.938 196.801 133.789 196.801 L 133.789 196.801 L 131.755 196.801 L 131.755 196.801 Q 131.508 196.801 131.384 196.677 L 131.384 196.677 L 131.384 196.677 Q 131.26 196.553 131.226 196.454 L 131.226 196.454 L 130.582 194.768 L 126.168 194.768 L 125.54 196.454 L 125.54 196.454 Q 125.507 196.553 125.391 196.677 L 125.391 196.677 L 125.391 196.677 Q 125.275 196.801 124.994 196.801 L 124.994 196.801 Z  M 128.383 188.023 L 126.846 192.387 L 129.921 192.387 L 128.383 188.023 Z  M 140.203 196.967 L 140.203 196.967 L 140.203 196.967 Q 138.649 196.967 137.525 196.454 L 137.525 196.454 L 137.525 196.454 Q 136.401 195.942 135.781 194.95 L 135.781 194.95 L 135.781 194.95 Q 135.161 193.958 135.095 192.487 L 135.095 192.487 L 135.095 192.487 Q 135.078 191.809 135.078 191.032 L 135.078 191.032 L 135.078 191.032 Q 135.078 190.255 135.095 189.544 L 135.095 189.544 L 135.095 189.544 Q 135.161 188.106 135.789 187.098 L 135.789 187.098 L 135.789 187.098 Q 136.417 186.089 137.541 185.577 L 137.541 185.577 L 137.541 185.577 Q 138.665 185.064 140.203 185.064 L 140.203 185.064 L 140.203 185.064 Q 141.294 185.064 142.22 185.337 L 142.22 185.337 L 142.22 185.337 Q 143.145 185.61 143.84 186.13 L 143.84 186.13 L 143.84 186.13 Q 144.534 186.651 144.922 187.387 L 144.922 187.387 L 144.922 187.387 Q 145.311 188.122 145.327 189.048 L 145.327 189.048 L 145.327 189.048 Q 145.344 189.197 145.237 189.296 L 145.237 189.296 L 145.237 189.296 Q 145.129 189.395 144.98 189.395 L 144.98 189.395 L 142.749 189.395 L 142.749 189.395 Q 142.534 189.395 142.418 189.304 L 142.418 189.304 L 142.418 189.304 Q 142.302 189.213 142.22 188.966 L 142.22 188.966 L 142.22 188.966 Q 141.988 188.089 141.467 187.767 L 141.467 187.767 L 141.467 187.767 Q 140.947 187.445 140.186 187.445 L 140.186 187.445 L 140.186 187.445 Q 139.277 187.445 138.748 187.949 L 138.748 187.949 L 138.748 187.949 Q 138.219 188.453 138.17 189.627 L 138.17 189.627 L 138.17 189.627 Q 138.12 190.982 138.17 192.404 L 138.17 192.404 L 138.17 192.404 Q 138.219 193.578 138.748 194.082 L 138.748 194.082 L 138.748 194.082 Q 139.277 194.586 140.186 194.586 L 140.186 194.586 L 140.186 194.586 Q 140.947 194.586 141.476 194.255 L 141.476 194.255 L 141.476 194.255 Q 142.005 193.925 142.22 193.065 L 142.22 193.065 L 142.22 193.065 Q 142.286 192.817 142.41 192.726 L 142.41 192.726 L 142.41 192.726 Q 142.534 192.635 142.749 192.635 L 142.749 192.635 L 144.98 192.635 L 144.98 192.635 Q 145.129 192.635 145.237 192.735 L 145.237 192.735 L 145.237 192.735 Q 145.344 192.834 145.327 192.983 L 145.327 192.983 L 145.327 192.983 Q 145.311 193.908 144.922 194.644 L 144.922 194.644 L 144.922 194.644 Q 144.534 195.38 143.84 195.9 L 143.84 195.9 L 143.84 195.9 Q 143.145 196.421 142.22 196.694 L 142.22 196.694 L 142.22 196.694 Q 141.294 196.967 140.203 196.967 Z  M 148.435 196.801 L 146.402 196.801 L 146.402 196.801 Q 146.27 196.801 146.162 196.694 L 146.162 196.694 L 146.162 196.694 Q 146.055 196.586 146.055 196.454 L 146.055 196.454 L 146.055 196.454 Q 146.055 196.371 146.071 196.305 L 146.071 196.305 L 149.956 185.692 L 149.956 185.692 Q 150.006 185.511 150.163 185.37 L 150.163 185.37 L 150.163 185.37 Q 150.32 185.23 150.601 185.23 L 150.601 185.23 L 153.047 185.23 L 153.047 185.23 Q 153.328 185.23 153.485 185.37 L 153.485 185.37 L 153.485 185.37 Q 153.643 185.511 153.692 185.692 L 153.692 185.692 L 157.56 196.305 L 157.56 196.305 Q 157.593 196.371 157.593 196.454 L 157.593 196.454 L 157.593 196.454 Q 157.593 196.586 157.486 196.694 L 157.486 196.694 L 157.486 196.694 Q 157.379 196.801 157.23 196.801 L 157.23 196.801 L 155.196 196.801 L 155.196 196.801 Q 154.948 196.801 154.824 196.677 L 154.824 196.677 L 154.824 196.677 Q 154.7 196.553 154.667 196.454 L 154.667 196.454 L 154.023 194.768 L 149.609 194.768 L 148.981 196.454 L 148.981 196.454 Q 148.948 196.553 148.832 196.677 L 148.832 196.677 L 148.832 196.677 Q 148.716 196.801 148.435 196.801 L 148.435 196.801 Z  M 151.824 188.023 L 150.287 192.387 L 153.361 192.387 L 151.824 188.023 Z  M 163.759 196.967 L 163.759 196.967 L 163.759 196.967 Q 162.255 196.967 161.139 196.479 L 161.139 196.479 L 161.139 196.479 Q 160.023 195.991 159.412 194.975 L 159.412 194.975 L 159.412 194.975 Q 158.8 193.958 158.8 192.387 L 158.8 192.387 L 158.8 185.643 L 158.8 185.643 Q 158.8 185.461 158.916 185.345 L 158.916 185.345 L 158.916 185.345 Q 159.032 185.23 159.213 185.23 L 159.213 185.23 L 161.346 185.23 L 161.346 185.23 Q 161.528 185.23 161.652 185.345 L 161.652 185.345 L 161.652 185.345 Q 161.776 185.461 161.776 185.643 L 161.776 185.643 L 161.776 192.371 L 161.776 192.371 Q 161.776 193.445 162.288 193.983 L 162.288 193.983 L 162.288 193.983 Q 162.801 194.52 163.743 194.52 L 163.743 194.52 L 163.743 194.52 Q 164.669 194.52 165.189 193.983 L 165.189 193.983 L 165.189 193.983 Q 165.71 193.445 165.71 192.371 L 165.71 192.371 L 165.71 185.643 L 165.71 185.643 Q 165.71 185.461 165.834 185.345 L 165.834 185.345 L 165.834 185.345 Q 165.958 185.23 166.123 185.23 L 166.123 185.23 L 168.272 185.23 L 168.272 185.23 Q 168.438 185.23 168.562 185.345 L 168.562 185.345 L 168.562 185.345 Q 168.686 185.461 168.686 185.643 L 168.686 185.643 L 168.686 192.387 L 168.686 192.387 Q 168.686 193.958 168.074 194.975 L 168.074 194.975 L 168.074 194.975 Q 167.462 195.991 166.355 196.479 L 166.355 196.479 L 166.355 196.479 Q 165.247 196.967 163.759 196.967 Z  M 164.322 184.403 L 162.718 184.403 L 162.718 184.403 Q 162.454 184.403 162.454 184.138 L 162.454 184.138 L 162.454 184.138 Q 162.454 184.006 162.536 183.924 L 162.536 183.924 L 163.991 182.155 L 163.991 182.155 Q 164.156 181.956 164.272 181.899 L 164.272 181.899 L 164.272 181.899 Q 164.388 181.841 164.603 181.841 L 164.603 181.841 L 166.917 181.841 L 166.917 181.841 Q 167.231 181.841 167.231 182.171 L 167.231 182.171 L 167.231 182.171 Q 167.231 182.287 167.148 182.37 L 167.148 182.37 L 164.95 184.172 L 164.95 184.172 Q 164.817 184.287 164.685 184.345 L 164.685 184.345 L 164.685 184.345 Q 164.553 184.403 164.322 184.403 L 164.322 184.403 Z  M 173.281 196.801 L 171.298 196.801 L 171.298 196.801 Q 171.116 196.801 171 196.677 L 171 196.677 L 171 196.677 Q 170.884 196.553 170.884 196.388 L 170.884 196.388 L 170.884 185.643 L 170.884 185.643 Q 170.884 185.461 171 185.345 L 171 185.345 L 171 185.345 Q 171.116 185.23 171.298 185.23 L 171.298 185.23 L 173.05 185.23 L 173.05 185.23 Q 173.331 185.23 173.455 185.354 L 173.455 185.354 L 173.455 185.354 Q 173.579 185.477 173.612 185.544 L 173.612 185.544 L 177.645 191.892 L 177.645 185.643 L 177.645 185.643 Q 177.645 185.461 177.761 185.345 L 177.761 185.345 L 177.761 185.345 Q 177.877 185.23 178.059 185.23 L 178.059 185.23 L 180.042 185.23 L 180.042 185.23 Q 180.224 185.23 180.34 185.345 L 180.34 185.345 L 180.34 185.345 Q 180.456 185.461 180.456 185.643 L 180.456 185.643 L 180.456 196.371 L 180.456 196.371 Q 180.456 196.553 180.34 196.677 L 180.34 196.677 L 180.34 196.677 Q 180.224 196.801 180.042 196.801 L 180.042 196.801 L 178.274 196.801 L 178.274 196.801 Q 178.009 196.801 177.885 196.669 L 177.885 196.669 L 177.885 196.669 Q 177.761 196.537 177.728 196.487 L 177.728 196.487 L 173.695 190.371 L 173.695 196.388 L 173.695 196.388 Q 173.695 196.553 173.579 196.677 L 173.579 196.677 L 173.579 196.677 Q 173.463 196.801 173.281 196.801 L 173.281 196.801 Z  M 184.142 196.801 L 182.109 196.801 L 182.109 196.801 Q 181.977 196.801 181.869 196.694 L 181.869 196.694 L 181.869 196.694 Q 181.762 196.586 181.762 196.454 L 181.762 196.454 L 181.762 196.454 Q 181.762 196.371 181.778 196.305 L 181.778 196.305 L 185.663 185.692 L 185.663 185.692 Q 185.713 185.511 185.87 185.37 L 185.87 185.37 L 185.87 185.37 Q 186.027 185.23 186.308 185.23 L 186.308 185.23 L 188.754 185.23 L 188.754 185.23 Q 189.035 185.23 189.192 185.37 L 189.192 185.37 L 189.192 185.37 Q 189.349 185.511 189.399 185.692 L 189.399 185.692 L 193.267 196.305 L 193.267 196.305 Q 193.3 196.371 193.3 196.454 L 193.3 196.454 L 193.3 196.454 Q 193.3 196.586 193.193 196.694 L 193.193 196.694 L 193.193 196.694 Q 193.085 196.801 192.937 196.801 L 192.937 196.801 L 190.903 196.801 L 190.903 196.801 Q 190.655 196.801 190.531 196.677 L 190.531 196.677 L 190.531 196.677 Q 190.407 196.553 190.374 196.454 L 190.374 196.454 L 189.73 194.768 L 185.316 194.768 L 184.688 196.454 L 184.688 196.454 Q 184.655 196.553 184.539 196.677 L 184.539 196.677 L 184.539 196.677 Q 184.423 196.801 184.142 196.801 L 184.142 196.801 Z  M 187.531 188.023 L 185.994 192.387 L 189.068 192.387 L 187.531 188.023 Z  M 115.158 177.212 L 112.943 177.212 L 112.943 177.212 Q 112.761 177.212 112.646 177.088 L 112.646 177.088 L 112.646 177.088 Q 112.53 176.964 112.53 176.799 L 112.53 176.799 L 112.53 166.054 L 112.53 166.054 Q 112.53 165.872 112.646 165.756 L 112.646 165.756 L 112.646 165.756 Q 112.761 165.64 112.943 165.64 L 112.943 165.64 L 115.158 165.64 L 115.158 165.64 Q 115.34 165.64 115.464 165.756 L 115.464 165.756 L 115.464 165.756 Q 115.588 165.872 115.588 166.054 L 115.588 166.054 L 115.588 176.799 L 115.588 176.799 Q 115.588 176.964 115.464 177.088 L 115.464 177.088 L 115.464 177.088 Q 115.34 177.212 115.158 177.212 L 115.158 177.212 Z  M 122.663 177.377 L 122.663 177.377 L 122.663 177.377 Q 121.093 177.377 119.961 176.857 L 119.961 176.857 L 119.961 176.857 Q 118.828 176.336 118.208 175.336 L 118.208 175.336 L 118.208 175.336 Q 117.588 174.336 117.522 172.897 L 117.522 172.897 L 117.522 172.897 Q 117.506 172.187 117.506 171.385 L 117.506 171.385 L 117.506 171.385 Q 117.506 170.583 117.522 169.856 L 117.522 169.856 L 117.522 169.856 Q 117.588 168.451 118.217 167.475 L 118.217 167.475 L 118.217 167.475 Q 118.845 166.5 119.985 165.987 L 119.985 165.987 L 119.985 165.987 Q 121.126 165.475 122.663 165.475 L 122.663 165.475 L 122.663 165.475 Q 123.903 165.475 124.862 165.781 L 124.862 165.781 L 124.862 165.781 Q 125.821 166.087 126.474 166.599 L 126.474 166.599 L 126.474 166.599 Q 127.127 167.112 127.474 167.723 L 127.474 167.723 L 127.474 167.723 Q 127.821 168.335 127.838 168.93 L 127.838 168.93 L 127.838 168.93 Q 127.838 169.079 127.73 169.178 L 127.73 169.178 L 127.73 169.178 Q 127.623 169.277 127.474 169.277 L 127.474 169.277 L 125.06 169.277 L 125.06 169.277 Q 124.879 169.277 124.788 169.219 L 124.788 169.219 L 124.788 169.219 Q 124.697 169.161 124.631 169.046 L 124.631 169.046 L 124.631 169.046 Q 124.515 168.798 124.292 168.525 L 124.292 168.525 L 124.292 168.525 Q 124.069 168.252 123.68 168.054 L 123.68 168.054 L 123.68 168.054 Q 123.292 167.855 122.663 167.855 L 122.663 167.855 L 122.663 167.855 Q 121.738 167.855 121.192 168.351 L 121.192 168.351 L 121.192 168.351 Q 120.647 168.847 120.597 169.938 L 120.597 169.938 L 120.597 169.938 Q 120.547 171.36 120.597 172.815 L 120.597 172.815 L 120.597 172.815 Q 120.647 173.972 121.209 174.484 L 121.209 174.484 L 121.209 174.484 Q 121.771 174.997 122.713 174.997 L 122.713 174.997 L 122.713 174.997 Q 123.325 174.997 123.812 174.782 L 123.812 174.782 L 123.812 174.782 Q 124.3 174.567 124.581 174.112 L 124.581 174.112 L 124.581 174.112 Q 124.862 173.658 124.862 172.947 L 124.862 172.947 L 124.862 172.633 L 123.308 172.633 L 123.308 172.633 Q 123.126 172.633 123.011 172.509 L 123.011 172.509 L 123.011 172.509 Q 122.895 172.385 122.895 172.203 L 122.895 172.203 L 122.895 170.98 L 122.895 170.98 Q 122.895 170.798 123.011 170.674 L 123.011 170.674 L 123.011 170.674 Q 123.126 170.55 123.308 170.55 L 123.308 170.55 L 127.474 170.55 L 127.474 170.55 Q 127.656 170.55 127.772 170.674 L 127.772 170.674 L 127.772 170.674 Q 127.887 170.798 127.887 170.98 L 127.887 170.98 L 127.887 172.864 L 127.887 172.864 Q 127.887 174.286 127.243 175.294 L 127.243 175.294 L 127.243 175.294 Q 126.598 176.303 125.416 176.84 L 125.416 176.84 L 125.416 176.84 Q 124.234 177.377 122.663 177.377 Z  M 134.516 177.377 L 134.516 177.377 L 134.516 177.377 Q 132.995 177.377 131.871 176.881 L 131.871 176.881 L 131.871 176.881 Q 130.747 176.385 130.119 175.385 L 130.119 175.385 L 130.119 175.385 Q 129.491 174.385 129.425 172.881 L 129.425 172.881 L 129.425 172.881 Q 129.408 172.17 129.408 171.451 L 129.408 171.451 L 129.408 171.451 Q 129.408 170.732 129.425 170.021 L 129.425 170.021 L 129.425 170.021 Q 129.491 168.533 130.127 167.517 L 130.127 167.517 L 130.127 167.517 Q 130.764 166.5 131.896 165.987 L 131.896 165.987 L 131.896 165.987 Q 133.028 165.475 134.516 165.475 L 134.516 165.475 L 134.516 165.475 Q 136.02 165.475 137.145 165.987 L 137.145 165.987 L 137.145 165.987 Q 138.269 166.5 138.913 167.517 L 138.913 167.517 L 138.913 167.517 Q 139.558 168.533 139.608 170.021 L 139.608 170.021 L 139.608 170.021 Q 139.641 170.732 139.641 171.451 L 139.641 171.451 L 139.641 171.451 Q 139.641 172.17 139.608 172.881 L 139.608 172.881 L 139.608 172.881 Q 139.558 174.385 138.922 175.385 L 138.922 175.385 L 138.922 175.385 Q 138.285 176.385 137.161 176.881 L 137.161 176.881 L 137.161 176.881 Q 136.037 177.377 134.516 177.377 Z  M 134.516 174.997 L 134.516 174.997 L 134.516 174.997 Q 135.392 174.997 135.946 174.468 L 135.946 174.468 L 135.946 174.468 Q 136.5 173.939 136.533 172.782 L 136.533 172.782 L 136.533 172.782 Q 136.566 172.054 136.566 171.41 L 136.566 171.41 L 136.566 171.41 Q 136.566 170.765 136.533 170.071 L 136.533 170.071 L 136.533 170.071 Q 136.5 169.294 136.244 168.806 L 136.244 168.806 L 136.244 168.806 Q 135.987 168.318 135.541 168.087 L 135.541 168.087 L 135.541 168.087 Q 135.095 167.855 134.516 167.855 L 134.516 167.855 L 134.516 167.855 Q 133.954 167.855 133.508 168.087 L 133.508 168.087 L 133.508 168.087 Q 133.061 168.318 132.797 168.806 L 132.797 168.806 L 132.797 168.806 Q 132.532 169.294 132.499 170.071 L 132.499 170.071 L 132.499 170.071 Q 132.483 170.765 132.483 171.41 L 132.483 171.41 L 132.483 171.41 Q 132.483 172.054 132.499 172.782 L 132.499 172.782 L 132.499 172.782 Q 132.549 173.939 133.103 174.468 L 133.103 174.468 L 133.103 174.468 Q 133.657 174.997 134.516 174.997 Z  M 144.104 177.212 L 141.972 177.212 L 141.972 177.212 Q 141.79 177.212 141.674 177.088 L 141.674 177.088 L 141.674 177.088 Q 141.558 176.964 141.558 176.799 L 141.558 176.799 L 141.558 166.054 L 141.558 166.054 Q 141.558 165.872 141.674 165.756 L 141.674 165.756 L 141.674 165.756 Q 141.79 165.64 141.972 165.64 L 141.972 165.64 L 146.468 165.64 L 146.468 165.64 Q 148.617 165.64 149.84 166.624 L 149.84 166.624 L 149.84 166.624 Q 151.064 167.607 151.064 169.409 L 151.064 169.409 L 151.064 169.409 Q 151.064 170.583 150.502 171.393 L 150.502 171.393 L 150.502 171.393 Q 149.94 172.203 149.014 172.616 L 149.014 172.616 L 151.279 176.683 L 151.279 176.683 Q 151.328 176.782 151.328 176.865 L 151.328 176.865 L 151.328 176.865 Q 151.328 176.997 151.221 177.105 L 151.221 177.105 L 151.221 177.105 Q 151.113 177.212 150.981 177.212 L 150.981 177.212 L 148.782 177.212 L 148.782 177.212 Q 148.468 177.212 148.32 177.055 L 148.32 177.055 L 148.32 177.055 Q 148.171 176.898 148.105 176.766 L 148.105 176.766 L 146.22 173.129 L 144.534 173.129 L 144.534 176.799 L 144.534 176.799 Q 144.534 176.964 144.41 177.088 L 144.41 177.088 L 144.41 177.088 Q 144.286 177.212 144.104 177.212 L 144.104 177.212 Z  M 144.534 167.938 L 144.534 170.781 L 146.435 170.781 L 146.435 170.781 Q 147.212 170.781 147.6 170.401 L 147.6 170.401 L 147.6 170.401 Q 147.989 170.021 147.989 169.376 L 147.989 169.376 L 147.989 169.376 Q 147.989 168.732 147.617 168.335 L 147.617 168.335 L 147.617 168.335 Q 147.245 167.938 146.435 167.938 L 146.435 167.938 L 144.534 167.938 Z " fill="rgb(0,0,0)"/></svg>