<?xml version="1.0" encoding="UTF-8" standalone="no"?>
<svg
   xmlns:dc="http://purl.org/dc/elements/1.1/"
   xmlns:cc="http://creativecommons.org/ns#"
   xmlns:rdf="http://www.w3.org/1999/02/22-rdf-syntax-ns#"
   xmlns:svg="http://www.w3.org/2000/svg"
   xmlns="http://www.w3.org/2000/svg"
   xmlns:sodipodi="http://sodipodi.sourceforge.net/DTD/sodipodi-0.dtd"
   xmlns:inkscape="http://www.inkscape.org/namespaces/inkscape"
   width="219"
   height="40"
   viewBox="0 0 219 40"
   fill="none"
   version="1.1"
   id="svg21"
   sodipodi:docname="logo-light.svg"
   inkscape:version="1.0.1 (3bc2e813f5, 2020-09-07)">
  <metadata
     id="metadata25">
    <rdf:RDF>
      <cc:Work
         rdf:about="">
        <dc:format>image/svg+xml</dc:format>
        <dc:type
           rdf:resource="http://purl.org/dc/dcmitype/StillImage" />
      </cc:Work>
    </rdf:RDF>
  </metadata>
  <sodipodi:namedview
     pagecolor="#ffffff"
     bordercolor="#666666"
     borderopacity="1"
     objecttolerance="10"
     gridtolerance="10"
     guidetolerance="10"
     inkscape:pageopacity="0"
     inkscape:pageshadow="2"
     inkscape:window-width="2560"
     inkscape:window-height="1017"
     id="namedview23"
     showgrid="false"
     inkscape:zoom="5.8630137"
     inkscape:cx="109.5"
     inkscape:cy="43.838816"
     inkscape:window-x="1912"
     inkscape:window-y="-8"
     inkscape:window-maximized="1"
     inkscape:current-layer="svg21" />
  <defs
     id="defs19">
    <clipPath
       id="clip0">
      <rect
         width="219"
         height="40"
         fill="white"
         id="rect16" />
    </clipPath>
  </defs>
  <g
     id="g924"
     transform="matrix(1,0,0,-1,-1.7367846e-7,39.9987)">
    <path
       d="M 14.6997,15.2543 C 15.553,16.7324 14.4864,18.58 12.7798,18.58 H 2.22023 c -1.706588,0 -2.773205,-1.8477 -1.919911,-3.3257 L 5.58009,6.10858 c 0.85329,-1.47811 2.98653,-1.47811 3.83982,0 z"
       fill="#00cd81"
       id="path2-7"
       style="fill:#845ce0;fill-opacity:1" />
    <path
       d="m 17.5801,27.5285 c 0.8533,-1.478 2.9865,-1.478 3.8398,0 l 5.2798,9.1448 c 0.8533,1.4779 -0.2133,3.3254 -1.9199,3.3254 H 14.2202 c -1.7066,0 -2.7732,-1.8475 -1.9199,-3.3254 z"
       fill="#e6faf2"
       id="path4-8"
       style="fill:#eae2fa;fill-opacity:1" />
    <path
       d="m 21.4199,12.4702 c -0.8533,1.478 -2.9865,1.478 -3.8398,0 L 12.3003,3.32539 C 11.447,1.84742 12.5136,0 14.2202,0 h 10.5596 c 1.7066,0 2.7732,1.84742 1.9199,3.32539 z"
       fill="#007b4d"
       id="path6-4"
       style="fill:#550091;fill-opacity:1" />
    <path
       d="m 12.7798,22 c 1.7066,0 2.7732,1.8476 1.9199,3.3257 l -5.27979,9.1457 c -0.85329,1.4781 -2.98653,1.4781 -3.83982,0 L 0.300319,25.3257 C -0.552975,23.8476 0.513642,22 2.22023,22 Z"
       fill="#99ebcd"
       id="path8-4"
       style="fill:#b198ec;fill-opacity:1" />
  </g>
  <text
     xml:space="preserve"
     style="font-style:normal;font-variant:normal;font-weight:600;font-stretch:normal;font-size:32px;line-height:1.25;font-family:'Segoe UI';-inkscape-font-specification:'Segoe UI, Semi-Bold';font-variant-ligatures:normal;font-variant-caps:normal;font-variant-numeric:normal;font-variant-east-asian:normal;fill:#550091;fill-opacity:1;stroke:none"
     x="47.245327"
     y="28.483641"
     id="text943"><tspan
       sodipodi:role="line"
       id="tspan941"
       x="47.245327"
       y="28.483641">igor<tspan
   style="fill:#b198ec;fill-opacity:1"
   id="tspan945">jacauna</tspan></tspan></text>
</svg>
